<svg xmlns="http://www.w3.org/2000/svg" width="1082.5" height="562.4" viewBox="0 0 1082.5 562.4"><rect width="100%" height="100%" fill="#FFFFFF"/><defs><marker id="arrow-0" viewBox="0 0 10 10" refX="5" refY="5" markerUnits="userSpaceOnUse" markerWidth="8" markerHeight="8" orient="auto"><path d="M 0 0 L 10 5 L 0 10 z" fill="#0288d1"/></marker><marker id="arrow-start-0" viewBox="0 0 10 10" refX="4.5" refY="5" markerUnits="userSpaceOnUse" markerWidth="8" markerHeight="8" orient="auto"><path d="M 0 5 L 10 10 L 10 0 z" fill="#0288d1"/></marker></defs><rect x="653.90" y="24.00" width="368.60" height="458.00" rx="10" ry="10" fill="#FFFFDE" stroke="#AAAA33" stroke-width="1" /><text x="838.20" y="52.00" text-anchor="middle" font-family="arial" font-size="16" fill="#01579b"><tspan x="838.20" dy="0.00">External APIs</tspan></text><rect x="24.00" y="105.00" width="433.50" height="326.00" rx="10" ry="10" fill="#FFFFDE" stroke="#AAAA33" stroke-width="1" /><text x="240.75" y="133.00" text-anchor="middle" font-family="arial" font-size="16" fill="#01579b"><tspan x="240.75" dy="0.00">Docker Container —</tspan><tspan x="240.75" dy="24.00">port 3000</tspan></text><rect x="24.00" y="105.00" width="433.50" height="326.00" rx="10" ry="10" fill="#FFFFDE" stroke="#AAAA33" stroke-width="1" /><text x="240.75" y="133.00" text-anchor="middle" font-family="arial" font-size="16" fill="#01579b"><tspan x="240.75" dy="0.00">SvelteKit Server</tspan><tspan x="240.75" dy="24.00">(adapter-node)</tspan></text><path d="M 758.300,134.000C758.300,125.000,727.467,111.500,758.300,107.000C789.133,102.500,912.467,111.500,943.300,107.000C974.133,102.500,943.300,89.000,943.300,80.000" fill="none" stroke="#0288d1" stroke-width="2"    stroke-linecap="round" stroke-linejoin="round" /><path d="M 672.000,135.350C672.000,155.625,760.400,186.038,672.000,196.175C583.600,206.312,230.000,186.038,141.600,196.175C53.200,206.312,141.600,236.725,141.600,257.000" fill="none" stroke="#0288d1" stroke-width="2" marker-end="url(#arrow-0)"   stroke-linecap="round" stroke-linejoin="round" /><rect x="381.20" y="118.18" width="51.20" height="28.00" rx="0" ry="0" fill="#E8E8E8" fill-opacity="0.5" stroke="none"/><text x="406.80" y="136.18" text-anchor="middle" font-family="arial" font-size="16" fill="#01579b"><tspan x="406.80" dy="0.00">&quot;HTTP&quot;</tspan></text><path d="M 100.800,257.000C273.167,257.000,531.717,260.000,617.900,257.000C704.083,254.000,671.333,242.000,617.900,239.000C564.467,236.000,404.167,239.000,297.300,239.000" fill="none" stroke="#0288d1" stroke-width="2" marker-end="url(#arrow-0)"   stroke-linecap="round" stroke-linejoin="round" /><rect x="588.70" y="234.00" width="58.40" height="28.00" rx="0" ry="0" fill="#E8E8E8" fill-opacity="0.5" stroke="none"/><text x="617.90" y="252.00" text-anchor="middle" font-family="arial" font-size="16" fill="#01579b"><tspan x="617.90" dy="0.00">&quot;fetch&quot;</tspan></text><path d="M 100.800,335.000C100.800,324.000,61.150,307.500,100.800,302.000C140.450,296.500,299.050,307.500,338.700,302.000C378.350,296.500,338.700,280.000,338.700,269.000" fill="none" stroke="#0288d1" stroke-width="2" marker-end="url(#arrow-0)"   stroke-linecap="round" stroke-linejoin="round" /><rect x="183.35" y="288.00" width="72.80" height="28.00" rx="0" ry="0" fill="#E8E8E8" fill-opacity="0.5" stroke="none"/><text x="219.75" y="306.00" text-anchor="middle" font-family="arial" font-size="16" fill="#01579b"><tspan x="219.75" dy="0.00">&quot;poll 5s&quot;</tspan></text><path d="M 141.600,335.000C141.600,338.000,108.750,342.500,141.600,344.000C174.450,345.500,305.850,342.500,338.700,344.000C371.550,345.500,338.700,350.000,338.700,353.000" fill="none" stroke="#0288d1" stroke-width="2" marker-end="url(#arrow-0)"   stroke-linecap="round" stroke-linejoin="round" /><rect x="203.75" y="330.00" width="72.80" height="28.00" rx="0" ry="0" fill="#E8E8E8" fill-opacity="0.5" stroke="none"/><text x="240.15" y="348.00" text-anchor="middle" font-family="arial" font-size="16" fill="#01579b"><tspan x="240.15" dy="0.00">&quot;img src&quot;</tspan></text><path d="M 338.700,239.000C338.700,271.250,371.350,319.625,338.700,335.750C306.050,351.875,175.450,319.625,142.800,335.750C110.150,351.875,142.800,400.250,142.800,432.500" fill="none" stroke="#0288d1" stroke-width="2" marker-end="url(#arrow-0)"   stroke-linecap="round" stroke-linejoin="round" /><rect x="179.15" y="321.75" width="123.20" height="28.00" rx="0" ry="0" fill="#E8E8E8" fill-opacity="0.5" stroke="none"/><text x="240.75" y="339.75" text-anchor="middle" font-family="arial" font-size="16" fill="#01579b"><tspan x="240.75" dy="0.00">&quot;Prompt request&quot;</tspan></text><path d="M 380.100,239.000C380.100,226.500,317.067,207.750,380.100,201.500C443.133,195.250,695.267,207.750,758.300,201.500C821.333,195.250,758.300,176.500,758.300,164.000" fill="none" stroke="#0288d1" stroke-width="2" marker-end="url(#arrow-0)"   stroke-linecap="round" stroke-linejoin="round" /><rect x="522.00" y="155.50" width="94.40" height="28.00" rx="0" ry="0" fill="#E8E8E8" fill-opacity="0.5" stroke="none"/><text x="569.20" y="173.50" text-anchor="middle" font-family="arial" font-size="16" fill="#01579b"><tspan x="569.20" dy="0.00">&quot;Submit job&quot;</tspan></text><path d="M 302.700,323.000C302.700,314.500,226.767,301.750,302.700,297.500C378.633,293.250,682.367,301.750,758.300,297.500C834.233,293.250,758.300,280.500,758.300,272.000" fill="none" stroke="#0288d1" stroke-width="2" marker-end="url(#arrow-0)"   stroke-linecap="round" stroke-linejoin="round" /><rect x="479.70" y="283.50" width="101.60" height="28.00" rx="0" ry="0" fill="#E8E8E8" fill-opacity="0.5" stroke="none"/><text x="530.50" y="301.50" text-anchor="middle" font-family="arial" font-size="16" fill="#01579b"><tspan x="530.50" dy="0.00">&quot;Task status&quot;</tspan></text><path d="M 338.700,323.000C338.700,332.500,268.767,346.750,338.700,351.500C408.633,356.250,688.367,346.750,758.300,351.500C828.233,356.250,758.300,370.500,758.300,380.000" fill="none" stroke="#0288d1" stroke-width="2" marker-end="url(#arrow-0)"   stroke-linecap="round" stroke-linejoin="round" /><rect x="486.90" y="337.50" width="123.20" height="28.00" rx="0" ry="0" fill="#E8E8E8" fill-opacity="0.5" stroke="none"/><text x="548.50" y="355.50" text-anchor="middle" font-family="arial" font-size="16" fill="#01579b"><tspan x="548.50" dy="0.00">&quot;Download image&quot;</tspan></text><path d="M 374.700,323.000C374.700,338.600,296.697,362.000,374.700,369.800C452.703,377.600,764.717,362.000,842.720,369.800C920.723,377.600,842.720,401.000,842.720,416.600" fill="none" stroke="#0288d1" stroke-width="2" marker-end="url(#arrow-0)"   stroke-linecap="round" stroke-linejoin="round" /><rect x="565.11" y="419.80" width="87.20" height="28.00" rx="0" ry="0" fill="#E8E8E8" fill-opacity="0.5" stroke="none"/><text x="608.71" y="437.80" text-anchor="middle" font-family="arial" font-size="16" fill="#01579b"><tspan x="608.71" dy="0.00">&quot;Save file&quot;</tspan></text><path d="M 338.700,407.000C338.700,408.600,246.643,411.000,338.700,411.800C430.757,412.600,798.983,411.000,891.040,411.800C983.097,412.600,891.040,415.000,891.040,416.600" fill="none" stroke="#0288d1" stroke-width="2" marker-end="url(#arrow-0)"   stroke-linecap="round" stroke-linejoin="round" /><rect x="571.27" y="461.80" width="87.20" height="28.00" rx="0" ry="0" fill="#E8E8E8" fill-opacity="0.5" stroke="none"/><text x="614.87" y="479.80" text-anchor="middle" font-family="arial" font-size="16" fill="#01579b"><tspan x="614.87" dy="0.00">&quot;Read file&quot;</tspan></text><rect x="888.10" y="80.00" width="110.40" height="54.00" rx="0" ry="0" fill="#fff3e0" stroke="#ef6c00" stroke-width="2" stroke-linejoin="round" stroke-linecap="round"/><text x="943.30" y="111.00" text-anchor="middle" font-family="arial" font-size="16" fill="#e65100"><tspan x="943.30" dy="0.00">3-pro&quot;]</tspan></text><rect x="254.70" y="269.00" width="168.00" height="54.00" rx="0" ry="0" fill="#e1f5fe" stroke="#0288d1" stroke-width="1" stroke-linejoin="round" stroke-linecap="round"/><text x="338.70" y="300.00" text-anchor="middle" font-family="arial" font-size="16" fill="#01579b"><tspan x="338.70" dy="0.00">POST /api/check</tspan></text><rect x="243.90" y="185.00" width="189.60" height="54.00" rx="0" ry="0" fill="#e1f5fe" stroke="#0288d1" stroke-width="1" stroke-linejoin="round" stroke-linecap="round"/><text x="338.70" y="216.00" text-anchor="middle" font-family="arial" font-size="16" fill="#01579b"><tspan x="338.70" dy="0.00">POST /api/generate</tspan></text><rect x="247.50" y="353.00" width="182.40" height="54.00" rx="0" ry="0" fill="#e1f5fe" stroke="#0288d1" stroke-width="1" stroke-linejoin="round" stroke-linecap="round"/><text x="338.70" y="384.00" text-anchor="middle" font-family="arial" font-size="16" fill="#01579b"><tspan x="338.70" dy="0.00">GET /api/images/*</tspan></text><rect x="91.20" y="432.50" width="103.20" height="54.00" rx="0" ry="0" fill="#e1f5fe" stroke="#0288d1" stroke-width="1" stroke-linejoin="round" stroke-linecap="round"/><text x="142.80" y="463.50" text-anchor="middle" font-family="arial" font-size="16" fill="#01579b"><tspan x="142.80" dy="0.00">gemini</tspan></text><rect x="677.90" y="80.00" width="160.80" height="54.00" rx="0" ry="0" fill="#e1f5fe" stroke="#0288d1" stroke-width="1" stroke-linejoin="round" stroke-linecap="round"/><text x="758.30" y="111.00" text-anchor="middle" font-family="arial" font-size="16" fill="#01579b"><tspan x="758.30" dy="0.00">gemini[&quot;Google</tspan></text><rect x="48.00" y="257.00" width="146.40" height="78.00" rx="0" ry="0" fill="#f3e5f5" stroke="#7b1fa2" stroke-width="2" stroke-linejoin="round" stroke-linecap="round"/><text x="121.20" y="288.00" text-anchor="middle" font-family="arial" font-size="16" fill="#4a148c"><tspan x="121.20" dy="0.00">Svelte 5 UI</tspan><tspan x="121.20" dy="24.00">+page.svelte</tspan></text><rect x="677.90" y="380.00" width="160.80" height="78.00" rx="0" ry="0" fill="#fff3e0" stroke="#ef6c00" stroke-width="2" stroke-linejoin="round" stroke-linecap="round"/><text x="758.30" y="411.00" text-anchor="middle" font-family="arial" font-size="16" fill="#e65100"><tspan x="758.30" dy="0.00">RunningHub CDN</tspan><tspan x="758.30" dy="24.00">Image Download</tspan></text><rect x="677.90" y="272.00" width="160.80" height="78.00" rx="0" ry="0" fill="#fff3e0" stroke="#ef6c00" stroke-width="2" stroke-linejoin="round" stroke-linecap="round"/><text x="758.30" y="303.00" text-anchor="middle" font-family="arial" font-size="16" fill="#e65100"><tspan x="758.30" dy="0.00">RunningHub</tspan><tspan x="758.30" dy="24.00">Query Endpoint</tspan></text><rect x="685.10" y="164.00" width="146.40" height="78.00" rx="0" ry="0" fill="#fff3e0" stroke="#ef6c00" stroke-width="2" stroke-linejoin="round" stroke-linecap="round"/><text x="758.30" y="195.00" text-anchor="middle" font-family="arial" font-size="16" fill="#e65100"><tspan x="758.30" dy="0.00">RunningHub</tspan><tspan x="758.30" dy="24.00">Run Endpoint</tspan></text><rect x="583.56" y="78.65" width="176.88" height="56.70" rx="28.35" ry="28.35" fill="#f3e5f5" stroke="#7b1fa2" stroke-width="2" stroke-linejoin="round" stroke-linecap="round"/><text x="672.00" y="111.00" text-anchor="middle" font-family="arial" font-size="16" fill="#4a148c"><tspan x="672.00" dy="0.00">Browser Client</tspan></text><ellipse cx="866.88" cy="426.90" rx="84.48" ry="10.30" fill="#e8f5e9" stroke="#2e7d32" stroke-width="2" stroke-linejoin="round" stroke-linecap="round"/><rect x="782.40" y="426.90" width="168.96" height="65.21" fill="#e8f5e9" stroke="#2e7d32" stroke-width="2" stroke-linejoin="round" stroke-linecap="round"/><ellipse cx="866.88" cy="492.10" rx="84.48" ry="10.30" fill="none" stroke="#2e7d32" stroke-width="2" stroke-linejoin="round" stroke-linecap="round"/><text x="866.88" y="451.50" text-anchor="middle" font-family="arial" font-size="16" fill="#1b5e20"><tspan x="866.88" dy="0.00">/mount Volume</tspan><tspan x="866.88" dy="24.00">./outputs</tspan></text></svg>