<svg xmlns="http://www.w3.org/2000/svg" width="1149.4199" height="837.35" viewBox="0 0 1149.4199 837.35"><rect width="100%" height="100%" fill="#FFFFFF"/><defs><marker id="arrow-0" viewBox="0 0 10 10" refX="5" refY="5" markerUnits="userSpaceOnUse" markerWidth="8" markerHeight="8" orient="auto"><path d="M 0 0 L 10 5 L 0 10 z" fill="#0288d1"/></marker><marker id="arrow-start-0" viewBox="0 0 10 10" refX="4.5" refY="5" markerUnits="userSpaceOnUse" markerWidth="8" markerHeight="8" orient="auto"><path d="M 0 5 L 10 10 L 10 0 z" fill="#0288d1"/></marker></defs><rect x="24.00" y="218.35" width="1065.42" height="459.20" rx="10" ry="10" fill="#f5f5f5" stroke="#90a4ae" stroke-width="1" /><text x="556.71" y="246.35" text-anchor="middle" font-family="arial, helvetica, sans-serif" font-size="16" fill="#01579b"><tspan x="556.71" dy="0.00">Docker Container -</tspan><tspan x="556.71" dy="24.00">shared_net</tspan></text><rect x="36.00" y="242.35" width="1041.42" height="306.00" rx="10" ry="10" fill="#f5f5f5" stroke="#90a4ae" stroke-width="1" /><text x="556.71" y="270.35" text-anchor="middle" font-family="arial, helvetica, sans-serif" font-size="16" fill="#01579b"><tspan x="556.71" dy="0.00">SvelteKit App :3000</tspan></text><path d="M 740.040,79.350C740.040,93.183,740.040,113.933,740.040,120.850C740.040,127.767,740.040,113.933,740.040,120.850C740.040,127.767,740.040,148.517,740.040,162.350" fill="none" stroke="#0288d1" stroke-width="2"    stroke-linecap="round" stroke-linejoin="round" /><path d="M 968.040,79.350C968.040,93.183,968.040,113.933,968.040,120.850C968.040,127.767,968.040,113.933,968.040,120.850C968.040,127.767,968.040,148.517,968.040,162.350" fill="none" stroke="#0288d1" stroke-width="2"    stroke-linecap="round" stroke-linejoin="round" /><path d="M 511.200,80.700C511.200,92.308,511.200,109.721,511.200,115.525C511.200,121.329,511.200,109.721,511.200,115.525C511.200,121.329,511.200,138.742,511.200,150.350" fill="none" stroke="#0288d1" stroke-width="2" marker-end="url(#arrow-0)"   stroke-linecap="round" stroke-linejoin="round" /><path d="M 511.200,228.350C511.200,240.017,511.200,257.517,511.200,263.350C511.200,269.183,511.200,257.517,511.200,263.350C511.200,269.183,511.200,286.683,511.200,298.350" fill="none" stroke="#0288d1" stroke-width="2" marker-end="url(#arrow-0)"   stroke-linecap="round" stroke-linejoin="round" /><path d="M 474.480,376.350C474.480,390.017,527.760,410.517,474.480,417.350C421.200,424.183,208.080,410.517,154.800,417.350C101.520,424.183,154.800,444.683,154.800,458.350" fill="none" stroke="#0288d1" stroke-width="2" marker-end="url(#arrow-0)"   stroke-linecap="round" stroke-linejoin="round" /><path d="M 498.960,376.350C498.960,390.017,516.520,410.517,498.960,417.350C481.400,424.183,411.160,410.517,393.600,417.350C376.040,424.183,393.600,444.683,393.600,458.350" fill="none" stroke="#0288d1" stroke-width="2" marker-end="url(#arrow-0)"   stroke-linecap="round" stroke-linejoin="round" /><path d="M 523.440,376.350C523.440,390.017,505.880,410.517,523.440,417.350C541.000,424.183,611.240,410.517,628.800,417.350C646.360,424.183,628.800,444.683,628.800,458.350" fill="none" stroke="#0288d1" stroke-width="2" marker-end="url(#arrow-0)"   stroke-linecap="round" stroke-linejoin="round" /><path d="M 547.920,376.350C547.920,388.017,477.070,405.517,547.920,411.350C618.770,417.183,902.170,405.517,973.020,411.350C1043.870,417.183,973.020,434.683,973.020,446.350" fill="none" stroke="#0288d1" stroke-width="2" marker-end="url(#arrow-0)"  stroke-dasharray="2" stroke-linecap="round" stroke-linejoin="round" /><path d="M 127.200,512.350C127.200,526.433,124.267,547.558,127.200,554.600C130.133,561.642,141.867,547.558,144.800,554.600C147.733,561.642,144.800,582.767,144.800,596.850" fill="none" stroke="#0288d1" stroke-width="2" marker-end="url(#arrow-0)"   stroke-linecap="round" stroke-linejoin="round" /><rect x="74.40" y="540.60" width="123.20" height="28.00" rx="0" ry="0" fill="#FFFFFF" fill-opacity="0.5" stroke="none"/><text x="136.00" y="558.60" text-anchor="middle" font-family="arial, helvetica, sans-serif" font-size="16" fill="#01579b"><tspan x="136.00" dy="0.00">&quot;Prompt request&quot;</tspan></text><path d="M 182.400,512.350C182.400,526.433,158.467,547.558,182.400,554.600C206.333,561.642,302.067,547.558,326.000,554.600C349.933,561.642,326.000,582.767,326.000,596.850" fill="none" stroke="#0288d1" stroke-width="2" marker-end="url(#arrow-0)"   stroke-linecap="round" stroke-linejoin="round" /><rect x="203.40" y="540.60" width="101.60" height="28.00" rx="0" ry="0" fill="#FFFFFF" fill-opacity="0.5" stroke="none"/><text x="254.20" y="558.60" text-anchor="middle" font-family="arial, helvetica, sans-serif" font-size="16" fill="#01579b"><tspan x="254.20" dy="0.00">&quot;Submit task&quot;</tspan></text><path d="M 357.600,512.350C357.600,522.933,360.167,538.808,357.600,544.100C355.033,549.392,344.767,535.308,342.200,544.100C339.633,552.892,342.200,579.267,342.200,596.850" fill="none" stroke="#0288d1" stroke-width="2" marker-end="url(#arrow-0)"   stroke-linecap="round" stroke-linejoin="round" /><rect x="299.10" y="530.10" width="101.60" height="28.00" rx="0" ry="0" fill="#FFFFFF" fill-opacity="0.5" stroke="none"/><text x="349.90" y="548.10" text-anchor="middle" font-family="arial, helvetica, sans-serif" font-size="16" fill="#01579b"><tspan x="349.90" dy="0.00">&quot;Poll status&quot;</tspan></text><path d="M 393.600,512.350C393.600,529.933,399.467,556.308,393.600,565.100C387.733,573.892,364.267,559.808,358.400,565.100C352.533,570.392,358.400,586.267,358.400,596.850" fill="none" stroke="#0288d1" stroke-width="2" marker-end="url(#arrow-0)"   stroke-linecap="round" stroke-linejoin="round" /><rect x="314.40" y="551.10" width="123.20" height="28.00" rx="0" ry="0" fill="#FFFFFF" fill-opacity="0.5" stroke="none"/><text x="376.00" y="569.10" text-anchor="middle" font-family="arial, helvetica, sans-serif" font-size="16" fill="#01579b"><tspan x="376.00" dy="0.00">&quot;Download image&quot;</tspan></text><path d="M 429.600,512.350C429.600,525.983,411.187,546.433,429.600,553.250C448.013,560.067,521.667,546.433,540.080,553.250C558.493,560.067,540.080,580.517,540.080,594.150" fill="none" stroke="#0288d1" stroke-width="2" marker-end="url(#arrow-0)"   stroke-linecap="round" stroke-linejoin="round" /><rect x="441.24" y="539.25" width="87.20" height="28.00" rx="0" ry="0" fill="#FFFFFF" fill-opacity="0.5" stroke="none"/><text x="484.84" y="557.25" text-anchor="middle" font-family="arial, helvetica, sans-serif" font-size="16" fill="#01579b"><tspan x="484.84" dy="0.00">&quot;Save file&quot;</tspan></text><path d="M 628.800,512.350C628.800,525.983,635.533,546.433,628.800,553.250C622.067,560.067,595.133,546.433,588.400,553.250C581.667,560.067,588.400,580.517,588.400,594.150" fill="none" stroke="#0288d1" stroke-width="2" marker-end="url(#arrow-0)"   stroke-linecap="round" stroke-linejoin="round" /><rect x="565.00" y="539.25" width="87.20" height="28.00" rx="0" ry="0" fill="#FFFFFF" fill-opacity="0.5" stroke="none"/><text x="608.60" y="557.25" text-anchor="middle" font-family="arial, helvetica, sans-serif" font-size="16" fill="#01579b"><tspan x="608.60" dy="0.00">&quot;Read file&quot;</tspan></text><path d="M 564.240,653.550C564.240,665.183,564.240,682.633,564.240,688.450C564.240,694.267,564.240,682.633,564.240,688.450C564.240,694.267,564.240,711.717,564.240,723.350" fill="none" stroke="#0288d1" stroke-width="2"    stroke-linecap="round" stroke-linejoin="round" /><rect x="517.04" y="674.45" width="94.40" height="28.00" rx="0" ry="0" fill="#FFFFFF" fill-opacity="0.5" stroke="none"/><text x="564.24" y="692.45" text-anchor="middle" font-family="arial, helvetica, sans-serif" font-size="16" fill="#01579b"><tspan x="564.24" dy="0.00">&quot;bind mount&quot;</tspan></text><rect x="684.84" y="162.35" width="110.40" height="54.00" rx="0" ry="0" fill="#fff3e0" stroke="#ef6c00" stroke-width="2" stroke-linejoin="round" stroke-linecap="round"/><text x="740.04" y="193.35" text-anchor="middle" font-family="arial, helvetica, sans-serif" font-size="16" fill="#bf360c"><tspan x="740.04" dy="0.00">3-pro&quot;]</tspan></text><rect x="309.60" y="458.35" width="168.00" height="54.00" rx="0" ry="0" fill="#e1f5fe" stroke="#0288d1" stroke-width="1" stroke-linejoin="round" stroke-linecap="round"/><text x="393.60" y="489.35" text-anchor="middle" font-family="arial, helvetica, sans-serif" font-size="16" fill="#01579b"><tspan x="393.60" dy="0.00">POST /api/check</tspan></text><rect x="60.00" y="458.35" width="189.60" height="54.00" rx="0" ry="0" fill="#e1f5fe" stroke="#0288d1" stroke-width="1" stroke-linejoin="round" stroke-linecap="round"/><text x="154.80" y="489.35" text-anchor="middle" font-family="arial, helvetica, sans-serif" font-size="16" fill="#01579b"><tspan x="154.80" dy="0.00">POST /api/generate</tspan></text><rect x="537.60" y="458.35" width="182.40" height="54.00" rx="0" ry="0" fill="#e1f5fe" stroke="#0288d1" stroke-width="1" stroke-linejoin="round" stroke-linecap="round"/><text x="628.80" y="489.35" text-anchor="middle" font-family="arial, helvetica, sans-serif" font-size="16" fill="#01579b"><tspan x="628.80" dy="0.00">GET /api/images/*</tspan></text><rect x="422.76" y="24.00" width="176.88" height="56.70" rx="28.35" ry="28.35" fill="#e3f2fd" stroke="#1565c0" stroke-width="2" stroke-linejoin="round" stroke-linecap="round"/><text x="511.20" y="56.35" text-anchor="middle" font-family="arial, helvetica, sans-serif" font-size="16" fill="#0d47a1"><tspan x="511.20" dy="0.00">Browser Client</tspan></text><rect x="927.24" y="162.35" width="81.60" height="54.00" rx="0" ry="0" fill="#fff3e0" stroke="#ef6c00" stroke-width="2" stroke-linejoin="round" stroke-linecap="round"/><text x="968.04" y="193.35" text-anchor="middle" font-family="arial, helvetica, sans-serif" font-size="16" fill="#bf360c"><tspan x="968.04" dy="0.00">dev</tspan></text><rect x="93.20" y="596.85" width="103.20" height="54.00" rx="0" ry="0" fill="#e1f5fe" stroke="#0288d1" stroke-width="1" stroke-linejoin="round" stroke-linecap="round"/><text x="144.80" y="627.85" text-anchor="middle" font-family="arial, helvetica, sans-serif" font-size="16" fill="#01579b"><tspan x="144.80" dy="0.00">gemini</tspan></text><rect x="659.64" y="25.35" width="160.80" height="54.00" rx="0" ry="0" fill="#e1f5fe" stroke="#0288d1" stroke-width="1" stroke-linejoin="round" stroke-linecap="round"/><text x="740.04" y="56.35" text-anchor="middle" font-family="arial, helvetica, sans-serif" font-size="16" fill="#01579b"><tspan x="740.04" dy="0.00">gemini[&quot;Google</tspan></text><rect x="480.24" y="723.35" width="168.00" height="54.00" rx="0" ry="0" fill="#e8f5e9" stroke="#2e7d32" stroke-width="2" stroke-linejoin="round" stroke-linecap="round"/><text x="564.24" y="754.35" text-anchor="middle" font-family="arial, helvetica, sans-serif" font-size="16" fill="#1b5e20"><tspan x="564.24" dy="0.00">Host: ./outputs</tspan></text><rect x="438.00" y="298.35" width="146.40" height="78.00" rx="0" ry="0" fill="#e1f5fe" stroke="#0288d1" stroke-width="1" stroke-linejoin="round" stroke-linecap="round"/><text x="511.20" y="329.35" text-anchor="middle" font-family="arial, helvetica, sans-serif" font-size="16" fill="#01579b"><tspan x="511.20" dy="0.00">Page UI</tspan><tspan x="511.20" dy="24.00">+page.svelte</tspan></text><rect x="412.80" y="150.35" width="196.80" height="78.00" rx="0" ry="0" fill="#f3e5f5" stroke="#7b1fa2" stroke-width="2" stroke-linejoin="round" stroke-linecap="round"/><text x="511.20" y="181.35" text-anchor="middle" font-family="arial, helvetica, sans-serif" font-size="16" fill="#4a148c"><tspan x="511.20" dy="0.00">Reverse Proxy</tspan><tspan x="511.20" dy="24.00">Nginx Proxy Manager</tspan></text><rect x="297.80" y="596.85" width="88.80" height="54.00" rx="0" ry="0" fill="#e1f5fe" stroke="#0288d1" stroke-width="1" stroke-linejoin="round" stroke-linecap="round"/><text x="342.20" y="627.85" text-anchor="middle" font-family="arial, helvetica, sans-serif" font-size="16" fill="#01579b"><tspan x="342.20" dy="0.00">rhub</tspan></text><rect x="880.44" y="25.35" width="175.20" height="54.00" rx="0" ry="0" fill="#e1f5fe" stroke="#0288d1" stroke-width="1" stroke-linejoin="round" stroke-linecap="round"/><text x="968.04" y="56.35" text-anchor="middle" font-family="arial, helvetica, sans-serif" font-size="16" fill="#01579b"><tspan x="968.04" dy="0.00">rhub[&quot;RunningHub</tspan></text><rect x="892.62" y="446.35" width="160.80" height="78.00" rx="0" ry="0" fill="#e1f5fe" stroke="#0288d1" stroke-width="1" stroke-linejoin="round" stroke-linecap="round"/><text x="973.02" y="477.35" text-anchor="middle" font-family="arial, helvetica, sans-serif" font-size="16" fill="#01579b"><tspan x="973.02" dy="0.00">Service Worker</tspan><tspan x="973.02" dy="24.00">PWA Cache</tspan></text><ellipse cx="564.24" cy="601.28" rx="84.48" ry="7.13" fill="#e8f5e9" stroke="#2e7d32" stroke-width="2" stroke-linejoin="round" stroke-linecap="round"/><rect x="479.76" y="601.28" width="168.96" height="45.14" fill="#e8f5e9" stroke="#2e7d32" stroke-width="2" stroke-linejoin="round" stroke-linecap="round"/><ellipse cx="564.24" cy="646.42" rx="84.48" ry="7.13" fill="none" stroke="#2e7d32" stroke-width="2" stroke-linejoin="round" stroke-linecap="round"/><text x="564.24" y="627.85" text-anchor="middle" font-family="arial, helvetica, sans-serif" font-size="16" fill="#1b5e20"><tspan x="564.24" dy="0.00">/mount Volume</tspan></text></svg>