<svg xmlns="http://www.w3.org/2000/svg" width="3240" height="1678.8003" viewBox="0 0 3240 1678.8003"><rect width="100%" height="100%" fill="#FFFFFF"/><defs><marker id="arrow-0" viewBox="0 0 10 10" refX="5" refY="5" markerUnits="userSpaceOnUse" markerWidth="8" markerHeight="8" orient="auto"><path d="M 0 0 L 10 5 L 0 10 z" fill="#0288d1"/></marker><marker id="arrow-start-0" viewBox="0 0 10 10" refX="4.5" refY="5" markerUnits="userSpaceOnUse" markerWidth="8" markerHeight="8" orient="auto"><path d="M 0 5 L 10 10 L 10 0 z" fill="#0288d1"/></marker><marker id="arrow-seq-0" viewBox="-1 0 12 10" refX="7.9" refY="5" markerUnits="userSpaceOnUse" markerWidth="12" markerHeight="12" orient="auto-start-reverse"><path d="M -1 0 L 10 5 L 0 10 z" fill="#0288d1" stroke="#0288d1"/></marker><marker id="arrow-start-seq-0" viewBox="-1 0 12 10" refX="2.1" refY="5" markerUnits="userSpaceOnUse" markerWidth="12" markerHeight="12" orient="auto"><path d="M 11 0 L 0 5 L 11 10 z" fill="#0288d1" stroke="#0288d1"/></marker></defs><rect x="1663.80" y="121.00" width="1422.40" height="1321.60" fill="none" stroke="#0288d1" stroke-width="2.0" stroke-dasharray="2 2"/><polygon points="1663.80,121.00 1724.60,121.00 1724.60,134.00 1712.44,141.00 1663.80,141.00" fill="#e1f5fe" stroke="#0288d1" stroke-width="1.1"/><text x="1694.20" y="135.00" text-anchor="middle" font-family="arial, helvetica, sans-serif" font-size="16" fill="#01579b"><tspan x="1694.20" dy="0.00">loop</tspan></text><text x="2375.00" y="124.20" text-anchor="middle" font-family="arial, helvetica, sans-serif" font-size="16" fill="#01579b"><tspan x="2375.00" dy="0.00">[For each prompt</tspan><tspan x="2375.00" dy="24.00">(1..N)]</tspan></text><rect x="1863.80" y="524.20" width="1022.40" height="672.00" fill="none" stroke="#0288d1" stroke-width="2.0" stroke-dasharray="2 2"/><polygon points="1863.80,524.20 1924.60,524.20 1924.60,537.20 1912.44,544.20 1863.80,544.20" fill="#e1f5fe" stroke="#0288d1" stroke-width="1.1"/><text x="1894.20" y="538.20" text-anchor="middle" font-family="arial, helvetica, sans-serif" font-size="16" fill="#01579b"><tspan x="1894.20" dy="0.00">loop</tspan></text><text x="2375.00" y="539.40" text-anchor="middle" font-family="arial, helvetica, sans-serif" font-size="16" fill="#01579b"><tspan x="2375.00" dy="0.00">[Poll every 5s]</tspan></text><rect x="1863.80" y="658.60" width="1022.40" height="537.60" fill="none" stroke="#0288d1" stroke-width="2.0" stroke-dasharray="2 2"/><line x1="1863.80" y1="797.80" x2="2886.20" y2="797.80" stroke="#0288d1" stroke-width="2.0" stroke-dasharray="3 3"/><line x1="1863.80" y1="1066.60" x2="2886.20" y2="1066.60" stroke="#0288d1" stroke-width="2.0" stroke-dasharray="3 3"/><polygon points="1863.80,658.60 1917.40,658.60 1917.40,671.60 1906.68,678.60 1863.80,678.60" fill="#e1f5fe" stroke="#0288d1" stroke-width="1.1"/><text x="1890.60" y="672.60" text-anchor="middle" font-family="arial, helvetica, sans-serif" font-size="16" fill="#01579b"><tspan x="1890.60" dy="0.00">alt</tspan></text><text x="2375.00" y="673.80" text-anchor="middle" font-family="arial, helvetica, sans-serif" font-size="16" fill="#01579b"><tspan x="2375.00" dy="0.00">[PROCESSING]</tspan></text><text x="2375.00" y="813.00" text-anchor="middle" font-family="arial, helvetica, sans-serif" font-size="16" fill="#01579b"><tspan x="2375.00" dy="0.00">[SUCCESS]</tspan></text><text x="2375.00" y="1081.80" text-anchor="middle" font-family="arial, helvetica, sans-serif" font-size="16" fill="#01579b"><tspan x="2375.00" dy="0.00">[FAILED]</tspan></text><line x1="75.00" y1="65.00" x2="75.00" y2="1553.80" stroke="#999999" stroke-width="0.5"/><line x1="275.00" y1="65.00" x2="275.00" y2="1553.80" stroke="#999999" stroke-width="0.5"/><line x1="475.00" y1="65.00" x2="475.00" y2="1553.80" stroke="#999999" stroke-width="0.5"/><line x1="675.00" y1="65.00" x2="675.00" y2="1553.80" stroke="#999999" stroke-width="0.5"/><line x1="875.00" y1="65.00" x2="875.00" y2="1553.80" stroke="#999999" stroke-width="0.5"/><line x1="1075.00" y1="65.00" x2="1075.00" y2="1553.80" stroke="#999999" stroke-width="0.5"/><line x1="1275.00" y1="65.00" x2="1275.00" y2="1553.80" stroke="#999999" stroke-width="0.5"/><line x1="1475.00" y1="65.00" x2="1475.00" y2="1553.80" stroke="#999999" stroke-width="0.5"/><line x1="1675.00" y1="65.00" x2="1675.00" y2="1553.80" stroke="#999999" stroke-width="0.5"/><line x1="1875.00" y1="65.00" x2="1875.00" y2="1553.80" stroke="#999999" stroke-width="0.5"/><line x1="2075.00" y1="65.00" x2="2075.00" y2="1553.80" stroke="#999999" stroke-width="0.5"/><line x1="2275.00" y1="65.00" x2="2275.00" y2="1553.80" stroke="#999999" stroke-width="0.5"/><line x1="2475.00" y1="65.00" x2="2475.00" y2="1553.80" stroke="#999999" stroke-width="0.5"/><line x1="2675.00" y1="65.00" x2="2675.00" y2="1553.80" stroke="#999999" stroke-width="0.5"/><line x1="2875.00" y1="65.00" x2="2875.00" y2="1553.80" stroke="#999999" stroke-width="0.5"/><line x1="3075.00" y1="65.00" x2="3075.00" y2="1553.80" stroke="#999999" stroke-width="0.5"/><path d="M 1675.00 111.40 L 1875.00 111.40" fill="none" stroke="#0288d1" stroke-width="2" marker-end="url(#arrow-seq-0)"   /><text x="1775.00" y="80.20" text-anchor="middle" font-family="arial, helvetica, sans-serif" font-size="16" fill="#01579b">Fill form and click
Start</text><path d="M 1875.00 201.00 L 2075.00 201.00" fill="none" stroke="#0288d1" stroke-width="2" marker-end="url(#arrow-seq-0)"   /><text x="1975.00" y="169.80" text-anchor="middle" font-family="arial, helvetica, sans-serif" font-size="16" fill="#01579b">POST loraUrl, subject,
ratio, keys</text><path d="M 2075.000,245.800C2087.000,245.800,2105.000,239.800,2111.000,245.800C2117.000,251.800,2117.000,275.800,2111.000,281.800C2105.000,287.800,2087.000,281.800,2075.000,281.800" fill="none" stroke="#0288d1" stroke-width="2" marker-end="url(#arrow-seq-0)"   /><text x="2075.00" y="214.60" text-anchor="middle" font-family="arial, helvetica, sans-serif" font-size="16" fill="#01579b">Pick random scenario</text><path d="M 2075.00 290.60 L 2275.00 290.60" fill="none" stroke="#0288d1" stroke-width="2" marker-end="url(#arrow-seq-0)"   /><text x="2175.00" y="259.40" text-anchor="middle" font-family="arial, helvetica, sans-serif" font-size="16" fill="#01579b">Generate FLUX prompt</text><path d="M 2275.00 335.40 L 2075.00 335.40" fill="none" stroke="#0288d1" stroke-width="2" marker-end="url(#arrow-seq-0)"  stroke-dasharray="3 3" /><text x="2175.00" y="304.20" text-anchor="middle" font-family="arial, helvetica, sans-serif" font-size="16" fill="#01579b">Prompt text</text><path d="M 2075.000,380.200C2087.000,380.200,2105.000,374.200,2111.000,380.200C2117.000,386.200,2117.000,410.200,2111.000,416.200C2105.000,422.200,2087.000,416.200,2075.000,416.200" fill="none" stroke="#0288d1" stroke-width="2" marker-end="url(#arrow-seq-0)"   /><text x="2075.00" y="349.00" text-anchor="middle" font-family="arial, helvetica, sans-serif" font-size="16" fill="#01579b">Calculate 16px-aligned
dims</text><path d="M 2075.00 425.00 L 2475.00 425.00" fill="none" stroke="#0288d1" stroke-width="2" marker-end="url(#arrow-seq-0)"   /><text x="2275.00" y="393.80" text-anchor="middle" font-family="arial, helvetica, sans-serif" font-size="16" fill="#01579b">Submit image task</text><path d="M 2475.00 469.80 L 2075.00 469.80" fill="none" stroke="#0288d1" stroke-width="2" marker-end="url(#arrow-seq-0)"  stroke-dasharray="3 3" /><text x="2275.00" y="438.60" text-anchor="middle" font-family="arial, helvetica, sans-serif" font-size="16" fill="#01579b">taskId</text><path d="M 2075.00 514.60 L 1875.00 514.60" fill="none" stroke="#0288d1" stroke-width="2" marker-end="url(#arrow-seq-0)"  stroke-dasharray="3 3" /><text x="1975.00" y="483.40" text-anchor="middle" font-family="arial, helvetica, sans-serif" font-size="16" fill="#01579b">taskId + prompt</text><path d="M 1875.00 604.20 L 2675.00 604.20" fill="none" stroke="#0288d1" stroke-width="2" marker-end="url(#arrow-seq-0)"   /><text x="2275.00" y="573.00" text-anchor="middle" font-family="arial, helvetica, sans-serif" font-size="16" fill="#01579b">POST taskId, rhubKey,
dir, prefix</text><path d="M 2675.00 649.00 L 2475.00 649.00" fill="none" stroke="#0288d1" stroke-width="2" marker-end="url(#arrow-seq-0)"   /><text x="2575.00" y="617.80" text-anchor="middle" font-family="arial, helvetica, sans-serif" font-size="16" fill="#01579b">Query task status</text><path d="M 2475.00 738.60 L 2675.00 738.60" fill="none" stroke="#0288d1" stroke-width="2" marker-end="url(#arrow-seq-0)"  stroke-dasharray="3 3" /><text x="2575.00" y="707.40" text-anchor="middle" font-family="arial, helvetica, sans-serif" font-size="16" fill="#01579b">status: PROCESSING</text><path d="M 2675.00 783.40 L 1875.00 783.40" fill="none" stroke="#0288d1" stroke-width="2" marker-end="url(#arrow-seq-0)"  stroke-dasharray="3 3" /><text x="2275.00" y="752.20" text-anchor="middle" font-family="arial, helvetica, sans-serif" font-size="16" fill="#01579b">PROCESSING</text><path d="M 2475.00 873.00 L 2675.00 873.00" fill="none" stroke="#0288d1" stroke-width="2" marker-end="url(#arrow-seq-0)"  stroke-dasharray="3 3" /><text x="2575.00" y="841.80" text-anchor="middle" font-family="arial, helvetica, sans-serif" font-size="16" fill="#01579b">status: SUCCESS +
imageUrl</text><path d="M 2675.00 917.80 L 2475.00 917.80" fill="none" stroke="#0288d1" stroke-width="2" marker-end="url(#arrow-seq-0)"   /><text x="2575.00" y="886.60" text-anchor="middle" font-family="arial, helvetica, sans-serif" font-size="16" fill="#01579b">Download image</text><path d="M 2475.00 962.60 L 2675.00 962.60" fill="none" stroke="#0288d1" stroke-width="2" marker-end="url(#arrow-seq-0)"  stroke-dasharray="3 3" /><text x="2575.00" y="931.40" text-anchor="middle" font-family="arial, helvetica, sans-serif" font-size="16" fill="#01579b">Image bytes</text><path d="M 2675.00 1007.40 L 2875.00 1007.40" fill="none" stroke="#0288d1" stroke-width="2" marker-end="url(#arrow-seq-0)"   /><text x="2775.00" y="976.20" text-anchor="middle" font-family="arial, helvetica, sans-serif" font-size="16" fill="#01579b">Save prefix_NNN.png</text><path d="M 2675.00 1052.20 L 1875.00 1052.20" fill="none" stroke="#0288d1" stroke-width="2" marker-end="url(#arrow-seq-0)"  stroke-dasharray="3 3" /><text x="2275.00" y="1021.00" text-anchor="middle" font-family="arial, helvetica, sans-serif" font-size="16" fill="#01579b">SUCCESS + filename</text><path d="M 2475.00 1141.80 L 2675.00 1141.80" fill="none" stroke="#0288d1" stroke-width="2" marker-end="url(#arrow-seq-0)"  stroke-dasharray="3 3" /><text x="2575.00" y="1110.60" text-anchor="middle" font-family="arial, helvetica, sans-serif" font-size="16" fill="#01579b">status: FAILED</text><path d="M 2675.00 1186.60 L 1875.00 1186.60" fill="none" stroke="#0288d1" stroke-width="2" marker-end="url(#arrow-seq-0)"  stroke-dasharray="3 3" /><text x="2275.00" y="1155.40" text-anchor="middle" font-family="arial, helvetica, sans-serif" font-size="16" fill="#01579b">FAILED + error</text><path d="M 1875.00 1253.80 L 3075.00 1253.80" fill="none" stroke="#0288d1" stroke-width="2" marker-end="url(#arrow-seq-0)"   /><text x="2475.00" y="1222.60" text-anchor="middle" font-family="arial, helvetica, sans-serif" font-size="16" fill="#01579b">GET
/api/images/dir/file.png</text><path d="M 3075.00 1298.60 L 2875.00 1298.60" fill="none" stroke="#0288d1" stroke-width="2" marker-end="url(#arrow-seq-0)"   /><text x="2975.00" y="1267.40" text-anchor="middle" font-family="arial, helvetica, sans-serif" font-size="16" fill="#01579b">Read file</text><path d="M 2875.00 1343.40 L 3075.00 1343.40" fill="none" stroke="#0288d1" stroke-width="2" marker-end="url(#arrow-seq-0)"  stroke-dasharray="3 3" /><text x="2975.00" y="1312.20" text-anchor="middle" font-family="arial, helvetica, sans-serif" font-size="16" fill="#01579b">File bytes</text><path d="M 3075.00 1388.20 L 1875.00 1388.20" fill="none" stroke="#0288d1" stroke-width="2" marker-end="url(#arrow-seq-0)"  stroke-dasharray="3 3" /><text x="2475.00" y="1357.00" text-anchor="middle" font-family="arial, helvetica, sans-serif" font-size="16" fill="#01579b">Image response</text><path d="M 1875.00 1433.00 L 1675.00 1433.00" fill="none" stroke="#0288d1" stroke-width="2" marker-end="url(#arrow-seq-0)"   /><text x="1775.00" y="1401.80" text-anchor="middle" font-family="arial, helvetica, sans-serif" font-size="16" fill="#01579b">Display thumbnail +
prompt</text><path d="M 1675.00 1489.00 L 1875.00 1489.00" fill="none" stroke="#0288d1" stroke-width="2" marker-end="url(#arrow-seq-0)"   /><text x="1775.00" y="1457.80" text-anchor="middle" font-family="arial, helvetica, sans-serif" font-size="16" fill="#01579b">Click image thumbnail</text><path d="M 1875.00 1533.80 L 1675.00 1533.80" fill="none" stroke="#0288d1" stroke-width="2" marker-end="url(#arrow-seq-0)"   /><text x="1775.00" y="1502.60" text-anchor="middle" font-family="arial, helvetica, sans-serif" font-size="16" fill="#01579b">Open fullscreen modal</text><rect x="200.00" y="0.00" width="150.00" height="65.00" rx="3" ry="3" fill="#EAEAEA" stroke="#666666" stroke-width="1.0"/><text x="275.00" y="36.50" text-anchor="middle" font-family="arial, helvetica, sans-serif" font-size="16" fill="#01579b"><tspan x="275.00" dy="0.00">P</tspan></text><rect x="600.00" y="0.00" width="150.00" height="65.00" rx="3" ry="3" fill="#EAEAEA" stroke="#666666" stroke-width="1.0"/><text x="675.00" y="36.50" text-anchor="middle" font-family="arial, helvetica, sans-serif" font-size="16" fill="#01579b"><tspan x="675.00" dy="0.00">C</tspan></text><rect x="400.00" y="0.00" width="150.00" height="65.00" rx="3" ry="3" fill="#EAEAEA" stroke="#666666" stroke-width="1.0"/><text x="475.00" y="36.50" text-anchor="middle" font-family="arial, helvetica, sans-serif" font-size="16" fill="#01579b"><tspan x="475.00" dy="0.00">G</tspan></text><rect x="800.00" y="0.00" width="150.00" height="65.00" rx="3" ry="3" fill="#EAEAEA" stroke="#666666" stroke-width="1.0"/><text x="875.00" y="36.50" text-anchor="middle" font-family="arial, helvetica, sans-serif" font-size="16" fill="#01579b"><tspan x="875.00" dy="0.00">I</tspan></text><rect x="1400.00" y="0.00" width="150.00" height="65.00" rx="3" ry="3" fill="#EAEAEA" stroke="#666666" stroke-width="1.0"/><text x="1475.00" y="36.50" text-anchor="middle" font-family="arial, helvetica, sans-serif" font-size="16" fill="#01579b"><tspan x="1475.00" dy="0.00">FS</tspan></text><rect x="0.00" y="0.00" width="150.00" height="65.00" rx="3" ry="3" fill="#EAEAEA" stroke="#666666" stroke-width="1.0"/><text x="75.00" y="36.50" text-anchor="middle" font-family="arial, helvetica, sans-serif" font-size="16" fill="#01579b"><tspan x="75.00" dy="0.00">U</tspan></text><rect x="2600.00" y="0.00" width="150.00" height="65.00" rx="3" ry="3" fill="#EAEAEA" stroke="#666666" stroke-width="1.0"/><text x="2675.00" y="36.50" text-anchor="middle" font-family="arial, helvetica, sans-serif" font-size="16" fill="#01579b"><tspan x="2675.00" dy="0.00">C</tspan></text><rect x="2800.00" y="0.00" width="150.00" height="65.00" rx="3" ry="3" fill="#EAEAEA" stroke="#666666" stroke-width="1.0"/><text x="2875.00" y="36.50" text-anchor="middle" font-family="arial, helvetica, sans-serif" font-size="16" fill="#01579b"><tspan x="2875.00" dy="0.00">FS</tspan></text><rect x="2000.00" y="0.00" width="150.00" height="65.00" rx="3" ry="3" fill="#EAEAEA" stroke="#666666" stroke-width="1.0"/><text x="2075.00" y="36.50" text-anchor="middle" font-family="arial, helvetica, sans-serif" font-size="16" fill="#01579b"><tspan x="2075.00" dy="0.00">G</tspan></text><rect x="2200.00" y="0.00" width="150.00" height="65.00" rx="3" ry="3" fill="#EAEAEA" stroke="#666666" stroke-width="1.0"/><text x="2275.00" y="36.50" text-anchor="middle" font-family="arial, helvetica, sans-serif" font-size="16" fill="#01579b"><tspan x="2275.00" dy="0.00">Gem</tspan></text><rect x="1000.00" y="0.00" width="150.00" height="65.00" rx="3" ry="3" fill="#EAEAEA" stroke="#666666" stroke-width="1.0"/><text x="1075.00" y="36.50" text-anchor="middle" font-family="arial, helvetica, sans-serif" font-size="16" fill="#01579b"><tspan x="1075.00" dy="0.00">Gem</tspan></text><rect x="3000.00" y="0.00" width="150.00" height="65.00" rx="3" ry="3" fill="#EAEAEA" stroke="#666666" stroke-width="1.0"/><text x="3075.00" y="36.50" text-anchor="middle" font-family="arial, helvetica, sans-serif" font-size="16" fill="#01579b"><tspan x="3075.00" dy="0.00">I</tspan></text><rect x="1800.00" y="0.00" width="150.00" height="65.00" rx="3" ry="3" fill="#EAEAEA" stroke="#666666" stroke-width="1.0"/><text x="1875.00" y="36.50" text-anchor="middle" font-family="arial, helvetica, sans-serif" font-size="16" fill="#01579b"><tspan x="1875.00" dy="0.00">P</tspan></text><rect x="2400.00" y="0.00" width="150.00" height="65.00" rx="3" ry="3" fill="#EAEAEA" stroke="#666666" stroke-width="1.0"/><text x="2475.00" y="36.50" text-anchor="middle" font-family="arial, helvetica, sans-serif" font-size="16" fill="#01579b"><tspan x="2475.00" dy="0.00">RH</tspan></text><rect x="1200.00" y="0.00" width="150.00" height="65.00" rx="3" ry="3" fill="#EAEAEA" stroke="#666666" stroke-width="1.0"/><text x="1275.00" y="36.50" text-anchor="middle" font-family="arial, helvetica, sans-serif" font-size="16" fill="#01579b"><tspan x="1275.00" dy="0.00">RH</tspan></text><rect x="1600.00" y="0.00" width="150.00" height="65.00" rx="3" ry="3" fill="#EAEAEA" stroke="#666666" stroke-width="1.0"/><text x="1675.00" y="36.50" text-anchor="middle" font-family="arial, helvetica, sans-serif" font-size="16" fill="#01579b"><tspan x="1675.00" dy="0.00">U</tspan></text><rect x="0.00" y="1553.80" width="150.00" height="65.00" rx="3" ry="3" fill="#EAEAEA" stroke="#666666" stroke-width="1.0"/><text x="75.00" y="1590.30" text-anchor="middle" font-family="arial, helvetica, sans-serif" font-size="16" fill="#01579b"><tspan x="75.00" dy="0.00">U</tspan></text><rect x="200.00" y="1553.80" width="150.00" height="65.00" rx="3" ry="3" fill="#EAEAEA" stroke="#666666" stroke-width="1.0"/><text x="275.00" y="1590.30" text-anchor="middle" font-family="arial, helvetica, sans-serif" font-size="16" fill="#01579b"><tspan x="275.00" dy="0.00">P</tspan></text><rect x="400.00" y="1553.80" width="150.00" height="65.00" rx="3" ry="3" fill="#EAEAEA" stroke="#666666" stroke-width="1.0"/><text x="475.00" y="1590.30" text-anchor="middle" font-family="arial, helvetica, sans-serif" font-size="16" fill="#01579b"><tspan x="475.00" dy="0.00">G</tspan></text><rect x="600.00" y="1553.80" width="150.00" height="65.00" rx="3" ry="3" fill="#EAEAEA" stroke="#666666" stroke-width="1.0"/><text x="675.00" y="1590.30" text-anchor="middle" font-family="arial, helvetica, sans-serif" font-size="16" fill="#01579b"><tspan x="675.00" dy="0.00">C</tspan></text><rect x="800.00" y="1553.80" width="150.00" height="65.00" rx="3" ry="3" fill="#EAEAEA" stroke="#666666" stroke-width="1.0"/><text x="875.00" y="1590.30" text-anchor="middle" font-family="arial, helvetica, sans-serif" font-size="16" fill="#01579b"><tspan x="875.00" dy="0.00">I</tspan></text><rect x="1000.00" y="1553.80" width="150.00" height="65.00" rx="3" ry="3" fill="#EAEAEA" stroke="#666666" stroke-width="1.0"/><text x="1075.00" y="1590.30" text-anchor="middle" font-family="arial, helvetica, sans-serif" font-size="16" fill="#01579b"><tspan x="1075.00" dy="0.00">Gem</tspan></text><rect x="1200.00" y="1553.80" width="150.00" height="65.00" rx="3" ry="3" fill="#EAEAEA" stroke="#666666" stroke-width="1.0"/><text x="1275.00" y="1590.30" text-anchor="middle" font-family="arial, helvetica, sans-serif" font-size="16" fill="#01579b"><tspan x="1275.00" dy="0.00">RH</tspan></text><rect x="1400.00" y="1553.80" width="150.00" height="65.00" rx="3" ry="3" fill="#EAEAEA" stroke="#666666" stroke-width="1.0"/><text x="1475.00" y="1590.30" text-anchor="middle" font-family="arial, helvetica, sans-serif" font-size="16" fill="#01579b"><tspan x="1475.00" dy="0.00">FS</tspan></text><rect x="1600.00" y="1553.80" width="150.00" height="65.00" rx="3" ry="3" fill="#EAEAEA" stroke="#666666" stroke-width="1.0"/><text x="1675.00" y="1590.30" text-anchor="middle" font-family="arial, helvetica, sans-serif" font-size="16" fill="#01579b"><tspan x="1675.00" dy="0.00">U</tspan></text><rect x="1800.00" y="1553.80" width="150.00" height="65.00" rx="3" ry="3" fill="#EAEAEA" stroke="#666666" stroke-width="1.0"/><text x="1875.00" y="1590.30" text-anchor="middle" font-family="arial, helvetica, sans-serif" font-size="16" fill="#01579b"><tspan x="1875.00" dy="0.00">P</tspan></text><rect x="2000.00" y="1553.80" width="150.00" height="65.00" rx="3" ry="3" fill="#EAEAEA" stroke="#666666" stroke-width="1.0"/><text x="2075.00" y="1590.30" text-anchor="middle" font-family="arial, helvetica, sans-serif" font-size="16" fill="#01579b"><tspan x="2075.00" dy="0.00">G</tspan></text><rect x="2200.00" y="1553.80" width="150.00" height="65.00" rx="3" ry="3" fill="#EAEAEA" stroke="#666666" stroke-width="1.0"/><text x="2275.00" y="1590.30" text-anchor="middle" font-family="arial, helvetica, sans-serif" font-size="16" fill="#01579b"><tspan x="2275.00" dy="0.00">Gem</tspan></text><rect x="2400.00" y="1553.80" width="150.00" height="65.00" rx="3" ry="3" fill="#EAEAEA" stroke="#666666" stroke-width="1.0"/><text x="2475.00" y="1590.30" text-anchor="middle" font-family="arial, helvetica, sans-serif" font-size="16" fill="#01579b"><tspan x="2475.00" dy="0.00">RH</tspan></text><rect x="2600.00" y="1553.80" width="150.00" height="65.00" rx="3" ry="3" fill="#EAEAEA" stroke="#666666" stroke-width="1.0"/><text x="2675.00" y="1590.30" text-anchor="middle" font-family="arial, helvetica, sans-serif" font-size="16" fill="#01579b"><tspan x="2675.00" dy="0.00">C</tspan></text><rect x="2800.00" y="1553.80" width="150.00" height="65.00" rx="3" ry="3" fill="#EAEAEA" stroke="#666666" stroke-width="1.0"/><text x="2875.00" y="1590.30" text-anchor="middle" font-family="arial, helvetica, sans-serif" font-size="16" fill="#01579b"><tspan x="2875.00" dy="0.00">FS</tspan></text><rect x="3000.00" y="1553.80" width="150.00" height="65.00" rx="3" ry="3" fill="#EAEAEA" stroke="#666666" stroke-width="1.0"/><text x="3075.00" y="1590.30" text-anchor="middle" font-family="arial, helvetica, sans-serif" font-size="16" fill="#01579b"><tspan x="3075.00" dy="0.00">I</tspan></text></svg>