<svg xmlns="http://www.w3.org/2000/svg" width="3040" height="1642.0002" viewBox="0 0 3040 1642.0002"><rect width="100%" height="100%" fill="#FFFFFF"/><defs><marker id="arrow-0" viewBox="0 0 10 10" refX="5" refY="5" markerUnits="userSpaceOnUse" markerWidth="8" markerHeight="8" orient="auto"><path d="M 0 0 L 10 5 L 0 10 z" fill="#0288d1"/></marker><marker id="arrow-start-0" viewBox="0 0 10 10" refX="4.5" refY="5" markerUnits="userSpaceOnUse" markerWidth="8" markerHeight="8" orient="auto"><path d="M 0 5 L 10 10 L 10 0 z" fill="#0288d1"/></marker><marker id="arrow-seq-0" viewBox="-1 0 12 10" refX="7.9" refY="5" markerUnits="userSpaceOnUse" markerWidth="12" markerHeight="12" orient="auto-start-reverse"><path d="M -1 0 L 10 5 L 0 10 z" fill="#0288d1" stroke="#0288d1"/></marker><marker id="arrow-start-seq-0" viewBox="-1 0 12 10" refX="2.1" refY="5" markerUnits="userSpaceOnUse" markerWidth="12" markerHeight="12" orient="auto"><path d="M 11 0 L 0 5 L 11 10 z" fill="#0288d1" stroke="#0288d1"/></marker></defs><rect x="63.80" y="121.00" width="2822.40" height="1385.60" fill="none" stroke="#0288d1" stroke-width="2.0" stroke-dasharray="2 2"/><polygon points="63.80,121.00 124.60,121.00 124.60,134.00 112.44,141.00 63.80,141.00" fill="#e1f5fe" stroke="#0288d1" stroke-width="1.1"/><text x="94.20" y="135.00" text-anchor="middle" font-family="arial" font-size="16" fill="#01579b"><tspan x="94.20" dy="0.00">loop</tspan></text><text x="1475.00" y="124.20" text-anchor="middle" font-family="arial" font-size="16" fill="#01579b"><tspan x="1475.00" dy="0.00">[For each prompt</tspan><tspan x="1475.00" dy="24.00">(1..N)]</tspan></text><rect x="63.80" y="589.80" width="2822.40" height="916.80" fill="none" stroke="#0288d1" stroke-width="2.0" stroke-dasharray="2 2"/><polygon points="63.80,589.80 124.60,589.80 124.60,602.80 112.44,609.80 63.80,609.80" fill="#e1f5fe" stroke="#0288d1" stroke-width="1.1"/><text x="94.20" y="603.80" text-anchor="middle" font-family="arial" font-size="16" fill="#01579b"><tspan x="94.20" dy="0.00">loop</tspan></text><text x="1475.00" y="605.00" text-anchor="middle" font-family="arial" font-size="16" fill="#01579b"><tspan x="1475.00" dy="0.00">[Poll every 5 seconds]</tspan></text><rect x="63.80" y="769.00" width="2822.40" height="737.60" fill="none" stroke="#0288d1" stroke-width="2.0" stroke-dasharray="2 2"/><line x1="63.80" y1="1221.80" x2="2886.20" y2="1221.80" stroke="#0288d1" stroke-width="2.0" stroke-dasharray="3 3"/><line x1="63.80" y1="1311.40" x2="2886.20" y2="1311.40" stroke="#0288d1" stroke-width="2.0" stroke-dasharray="3 3"/><polygon points="63.80,769.00 117.40,769.00 117.40,782.00 106.68,789.00 63.80,789.00" fill="#e1f5fe" stroke="#0288d1" stroke-width="1.1"/><text x="90.60" y="783.00" text-anchor="middle" font-family="arial" font-size="16" fill="#01579b"><tspan x="90.60" dy="0.00">alt</tspan></text><text x="1475.00" y="784.20" text-anchor="middle" font-family="arial" font-size="16" fill="#01579b"><tspan x="1475.00" dy="0.00">[SUCCESS]</tspan></text><text x="1475.00" y="1237.00" text-anchor="middle" font-family="arial" font-size="16" fill="#01579b"><tspan x="1475.00" dy="0.00">[PROCESSING]</tspan></text><text x="1475.00" y="1326.60" text-anchor="middle" font-family="arial" font-size="16" fill="#01579b"><tspan x="1475.00" dy="0.00">[FAILED]</tspan></text><line x1="75.00" y1="65.00" x2="75.00" y2="1517.00" stroke="#999999" stroke-width="0.5"/><line x1="275.00" y1="65.00" x2="275.00" y2="1517.00" stroke="#999999" stroke-width="0.5"/><line x1="475.00" y1="65.00" x2="475.00" y2="1517.00" stroke="#999999" stroke-width="0.5"/><line x1="675.00" y1="65.00" x2="675.00" y2="1517.00" stroke="#999999" stroke-width="0.5"/><line x1="875.00" y1="65.00" x2="875.00" y2="1517.00" stroke="#999999" stroke-width="0.5"/><line x1="1075.00" y1="65.00" x2="1075.00" y2="1517.00" stroke="#999999" stroke-width="0.5"/><line x1="1275.00" y1="65.00" x2="1275.00" y2="1517.00" stroke="#999999" stroke-width="0.5"/><line x1="1475.00" y1="65.00" x2="1475.00" y2="1517.00" stroke="#999999" stroke-width="0.5"/><line x1="1675.00" y1="65.00" x2="1675.00" y2="1517.00" stroke="#999999" stroke-width="0.5"/><line x1="1875.00" y1="65.00" x2="1875.00" y2="1517.00" stroke="#999999" stroke-width="0.5"/><line x1="2075.00" y1="65.00" x2="2075.00" y2="1517.00" stroke="#999999" stroke-width="0.5"/><line x1="2275.00" y1="65.00" x2="2275.00" y2="1517.00" stroke="#999999" stroke-width="0.5"/><line x1="2475.00" y1="65.00" x2="2475.00" y2="1517.00" stroke="#999999" stroke-width="0.5"/><line x1="2675.00" y1="65.00" x2="2675.00" y2="1517.00" stroke="#999999" stroke-width="0.5"/><line x1="2875.00" y1="65.00" x2="2875.00" y2="1517.00" stroke="#999999" stroke-width="0.5"/><path d="M 1887.80 257.00 L 2047.80 257.00 L 2060.60 269.80 L 2060.60 300.20 L 1887.80 300.20 Z" fill="#FFF5AD" stroke="#AAAA33" stroke-width="1.1"/><polyline points="2047.80,257.00 2047.80,269.80 2060.60,269.80" fill="none" stroke="#AAAA33" stroke-width="1.0"/><text x="1974.20" y="282.60" text-anchor="middle" font-family="arial" font-size="16" fill="#01579b"><tspan x="1974.20" dy="0.00">Pick random scenario</tspan></text><path d="M 1887.80 412.20 L 2047.80 412.20 L 2060.60 425.00 L 2060.60 479.40 L 1887.80 479.40 Z" fill="#FFF5AD" stroke="#AAAA33" stroke-width="1.1"/><polyline points="2047.80,412.20 2047.80,425.00 2060.60,425.00" fill="none" stroke="#AAAA33" stroke-width="1.0"/><text x="1974.20" y="437.80" text-anchor="middle" font-family="arial" font-size="16" fill="#01579b"><tspan x="1974.20" dy="0.00">Calculate dimensions</tspan><tspan x="1974.20" dy="24.00">from aspect ratio</tspan></text><path d="M 1610.20 1353.00 L 1727.00 1353.00 L 1739.80 1365.80 L 1739.80 1396.20 L 1610.20 1396.20 Z" fill="#FFF5AD" stroke="#AAAA33" stroke-width="1.1"/><polyline points="1727.00,1353.00 1727.00,1365.80 1739.80,1365.80" fill="none" stroke="#AAAA33" stroke-width="1.0"/><text x="1675.00" y="1378.60" text-anchor="middle" font-family="arial" font-size="16" fill="#01579b"><tspan x="1675.00" dy="0.00">Wait 5s, retry</tspan></text><path d="M 75.00 111.40 L 1675.00 111.40" fill="none" stroke="#0288d1" stroke-width="2" marker-end="url(#arrow-seq-0)"   /><text x="875.00" y="80.20" text-anchor="middle" font-family="arial" font-size="16" fill="#01579b">Enter config + click
Start</text><path d="M 1675.00 201.00 L 1875.00 201.00" fill="none" stroke="#0288d1" stroke-width="2" marker-end="url(#arrow-seq-0)"   /><text x="1775.00" y="169.80" text-anchor="middle" font-family="arial" font-size="16" fill="#01579b">POST {subject,
loraUrl, AR, keys}</text><path d="M 1875.00 311.40 L 2075.00 311.40" fill="none" stroke="#0288d1" stroke-width="2" marker-end="url(#arrow-seq-0)"   /><text x="1975.00" y="280.20" text-anchor="middle" font-family="arial" font-size="16" fill="#01579b">Generate FLUX.1-dev
prompt</text><path d="M 2075.00 356.20 L 1875.00 356.20" fill="none" stroke="#0288d1" stroke-width="2" marker-end="url(#arrow-seq-0)"  stroke-dasharray="3 3" /><text x="1975.00" y="325.00" text-anchor="middle" font-family="arial" font-size="16" fill="#01579b">PROMPT: detailed text</text><path d="M 1875.00 490.60 L 2275.00 490.60" fill="none" stroke="#0288d1" stroke-width="2" marker-end="url(#arrow-seq-0)"   /><text x="2075.00" y="459.40" text-anchor="middle" font-family="arial" font-size="16" fill="#01579b">Submit job (prompt,
LoRA,
dims, random seed)</text><path d="M 2275.00 535.40 L 1875.00 535.40" fill="none" stroke="#0288d1" stroke-width="2" marker-end="url(#arrow-seq-0)"  stroke-dasharray="3 3" /><text x="2075.00" y="504.20" text-anchor="middle" font-family="arial" font-size="16" fill="#01579b">taskId</text><path d="M 1875.00 580.20 L 1675.00 580.20" fill="none" stroke="#0288d1" stroke-width="2" marker-end="url(#arrow-seq-0)"  stroke-dasharray="3 3" /><text x="1775.00" y="549.00" text-anchor="middle" font-family="arial" font-size="16" fill="#01579b">{taskId, prompt}</text><path d="M 1675.00 669.80 L 2475.00 669.80" fill="none" stroke="#0288d1" stroke-width="2" marker-end="url(#arrow-seq-0)"   /><text x="2075.00" y="638.60" text-anchor="middle" font-family="arial" font-size="16" fill="#01579b">POST {taskId, rhubKey,
outputDir, prefix}</text><path d="M 2475.00 714.60 L 2275.00 714.60" fill="none" stroke="#0288d1" stroke-width="2" marker-end="url(#arrow-seq-0)"   /><text x="2375.00" y="683.40" text-anchor="middle" font-family="arial" font-size="16" fill="#01579b">Query task status</text><path d="M 2275.00 759.40 L 2475.00 759.40" fill="none" stroke="#0288d1" stroke-width="2" marker-end="url(#arrow-seq-0)"  stroke-dasharray="3 3" /><text x="2375.00" y="728.20" text-anchor="middle" font-family="arial" font-size="16" fill="#01579b">status + result URL</text><path d="M 2475.00 849.00 L 2275.00 849.00" fill="none" stroke="#0288d1" stroke-width="2" marker-end="url(#arrow-seq-0)"   /><text x="2375.00" y="817.80" text-anchor="middle" font-family="arial" font-size="16" fill="#01579b">Download image</text><path d="M 2275.00 893.80 L 2475.00 893.80" fill="none" stroke="#0288d1" stroke-width="2" marker-end="url(#arrow-seq-0)"  stroke-dasharray="3 3" /><text x="2375.00" y="862.60" text-anchor="middle" font-family="arial" font-size="16" fill="#01579b">Image bytes</text><path d="M 2475.00 938.60 L 2675.00 938.60" fill="none" stroke="#0288d1" stroke-width="2" marker-end="url(#arrow-seq-0)"   /><text x="2575.00" y="907.40" text-anchor="middle" font-family="arial" font-size="16" fill="#01579b">Save as prefix_NNN.png</text><path d="M 2475.00 983.40 L 1675.00 983.40" fill="none" stroke="#0288d1" stroke-width="2" marker-end="url(#arrow-seq-0)"  stroke-dasharray="3 3" /><text x="2075.00" y="952.20" text-anchor="middle" font-family="arial" font-size="16" fill="#01579b">{SUCCESS, filename}</text><path d="M 1675.00 1028.20 L 2875.00 1028.20" fill="none" stroke="#0288d1" stroke-width="2" marker-end="url(#arrow-seq-0)"   /><text x="2275.00" y="997.00" text-anchor="middle" font-family="arial" font-size="16" fill="#01579b">GET
/api/images/dir/file</text><path d="M 2875.00 1073.00 L 2675.00 1073.00" fill="none" stroke="#0288d1" stroke-width="2" marker-end="url(#arrow-seq-0)"   /><text x="2775.00" y="1041.80" text-anchor="middle" font-family="arial" font-size="16" fill="#01579b">Read file</text><path d="M 2675.00 1117.80 L 2875.00 1117.80" fill="none" stroke="#0288d1" stroke-width="2" marker-end="url(#arrow-seq-0)"  stroke-dasharray="3 3" /><text x="2775.00" y="1086.60" text-anchor="middle" font-family="arial" font-size="16" fill="#01579b">File bytes</text><path d="M 2875.00 1162.60 L 1675.00 1162.60" fill="none" stroke="#0288d1" stroke-width="2" marker-end="url(#arrow-seq-0)"  stroke-dasharray="3 3" /><text x="2275.00" y="1131.40" text-anchor="middle" font-family="arial" font-size="16" fill="#01579b">Image response</text><path d="M 1675.00 1207.40 L 75.00 1207.40" fill="none" stroke="#0288d1" stroke-width="2" marker-end="url(#arrow-seq-0)"  stroke-dasharray="3 3" /><text x="875.00" y="1176.20" text-anchor="middle" font-family="arial" font-size="16" fill="#01579b">Display thumbnail +
prompt</text><path d="M 2475.00 1297.00 L 1675.00 1297.00" fill="none" stroke="#0288d1" stroke-width="2" marker-end="url(#arrow-seq-0)"  stroke-dasharray="3 3" /><text x="2075.00" y="1265.80" text-anchor="middle" font-family="arial" font-size="16" fill="#01579b">{PROCESSING}</text><path d="M 2475.00 1452.20 L 1675.00 1452.20" fill="none" stroke="#0288d1" stroke-width="2" marker-end="url(#arrow-seq-0)"  stroke-dasharray="3 3" /><text x="2075.00" y="1421.00" text-anchor="middle" font-family="arial" font-size="16" fill="#01579b">{FAILED, error}</text><path d="M 1675.00 1497.00 L 75.00 1497.00" fill="none" stroke="#0288d1" stroke-width="2" marker-end="url(#arrow-seq-0)"  stroke-dasharray="3 3" /><text x="875.00" y="1465.80" text-anchor="middle" font-family="arial" font-size="16" fill="#01579b">Show error badge</text><rect x="1000.00" y="0.00" width="150.00" height="65.00" rx="3" ry="3" fill="#EAEAEA" stroke="#666666" stroke-width="1.0"/><text x="1075.00" y="36.50" text-anchor="middle" font-family="arial" font-size="16" fill="#01579b"><tspan x="1075.00" dy="0.00">Check</tspan></text><rect x="400.00" y="0.00" width="150.00" height="65.00" rx="3" ry="3" fill="#EAEAEA" stroke="#666666" stroke-width="1.0"/><text x="475.00" y="36.50" text-anchor="middle" font-family="arial" font-size="16" fill="#01579b"><tspan x="475.00" dy="0.00">Gen</tspan></text><rect x="1400.00" y="0.00" width="150.00" height="65.00" rx="3" ry="3" fill="#EAEAEA" stroke="#666666" stroke-width="1.0"/><text x="1475.00" y="36.50" text-anchor="middle" font-family="arial" font-size="16" fill="#01579b"><tspan x="1475.00" dy="0.00">Img</tspan></text><rect x="1200.00" y="0.00" width="150.00" height="65.00" rx="3" ry="3" fill="#EAEAEA" stroke="#666666" stroke-width="1.0"/><text x="1275.00" y="36.50" text-anchor="middle" font-family="arial" font-size="16" fill="#01579b"><tspan x="1275.00" dy="0.00">Vol</tspan></text><rect x="2400.00" y="0.00" width="150.00" height="65.00" rx="3" ry="3" fill="#EAEAEA" stroke="#666666" stroke-width="1.0"/><text x="2475.00" y="36.50" text-anchor="middle" font-family="arial" font-size="16" fill="#01579b"><tspan x="2475.00" dy="0.00">Check</tspan></text><rect x="2000.00" y="0.00" width="150.00" height="65.00" rx="3" ry="3" fill="#EAEAEA" stroke="#666666" stroke-width="1.0"/><text x="2075.00" y="36.50" text-anchor="middle" font-family="arial" font-size="16" fill="#01579b"><tspan x="2075.00" dy="0.00">Gemini</tspan></text><rect x="1800.00" y="0.00" width="150.00" height="65.00" rx="3" ry="3" fill="#EAEAEA" stroke="#666666" stroke-width="1.0"/><text x="1875.00" y="36.50" text-anchor="middle" font-family="arial" font-size="16" fill="#01579b"><tspan x="1875.00" dy="0.00">Gen</tspan></text><rect x="600.00" y="0.00" width="150.00" height="65.00" rx="3" ry="3" fill="#EAEAEA" stroke="#666666" stroke-width="1.0"/><text x="675.00" y="36.50" text-anchor="middle" font-family="arial" font-size="16" fill="#01579b"><tspan x="675.00" dy="0.00">Gemini</tspan></text><rect x="2800.00" y="0.00" width="150.00" height="65.00" rx="3" ry="3" fill="#EAEAEA" stroke="#666666" stroke-width="1.0"/><text x="2875.00" y="36.50" text-anchor="middle" font-family="arial" font-size="16" fill="#01579b"><tspan x="2875.00" dy="0.00">Img</tspan></text><rect x="2200.00" y="0.00" width="150.00" height="65.00" rx="3" ry="3" fill="#EAEAEA" stroke="#666666" stroke-width="1.0"/><text x="2275.00" y="36.50" text-anchor="middle" font-family="arial" font-size="16" fill="#01579b"><tspan x="2275.00" dy="0.00">RH</tspan></text><rect x="800.00" y="0.00" width="150.00" height="65.00" rx="3" ry="3" fill="#EAEAEA" stroke="#666666" stroke-width="1.0"/><text x="875.00" y="36.50" text-anchor="middle" font-family="arial" font-size="16" fill="#01579b"><tspan x="875.00" dy="0.00">RH</tspan></text><rect x="200.00" y="0.00" width="150.00" height="65.00" rx="3" ry="3" fill="#EAEAEA" stroke="#666666" stroke-width="1.0"/><text x="275.00" y="36.50" text-anchor="middle" font-family="arial" font-size="16" fill="#01579b"><tspan x="275.00" dy="0.00">UI</tspan></text><rect x="1600.00" y="0.00" width="150.00" height="65.00" rx="3" ry="3" fill="#EAEAEA" stroke="#666666" stroke-width="1.0"/><text x="1675.00" y="36.50" text-anchor="middle" font-family="arial" font-size="16" fill="#01579b"><tspan x="1675.00" dy="0.00">UI</tspan></text><rect x="0.00" y="0.00" width="150.00" height="65.00" rx="3" ry="3" fill="#EAEAEA" stroke="#666666" stroke-width="1.0"/><text x="75.00" y="36.50" text-anchor="middle" font-family="arial" font-size="16" fill="#01579b"><tspan x="75.00" dy="0.00">User</tspan></text><rect x="2600.00" y="0.00" width="150.00" height="65.00" rx="3" ry="3" fill="#EAEAEA" stroke="#666666" stroke-width="1.0"/><text x="2675.00" y="36.50" text-anchor="middle" font-family="arial" font-size="16" fill="#01579b"><tspan x="2675.00" dy="0.00">Vol</tspan></text><rect x="0.00" y="1517.00" width="150.00" height="65.00" rx="3" ry="3" fill="#EAEAEA" stroke="#666666" stroke-width="1.0"/><text x="75.00" y="1553.50" text-anchor="middle" font-family="arial" font-size="16" fill="#01579b"><tspan x="75.00" dy="0.00">User</tspan></text><rect x="200.00" y="1517.00" width="150.00" height="65.00" rx="3" ry="3" fill="#EAEAEA" stroke="#666666" stroke-width="1.0"/><text x="275.00" y="1553.50" text-anchor="middle" font-family="arial" font-size="16" fill="#01579b"><tspan x="275.00" dy="0.00">UI</tspan></text><rect x="400.00" y="1517.00" width="150.00" height="65.00" rx="3" ry="3" fill="#EAEAEA" stroke="#666666" stroke-width="1.0"/><text x="475.00" y="1553.50" text-anchor="middle" font-family="arial" font-size="16" fill="#01579b"><tspan x="475.00" dy="0.00">Gen</tspan></text><rect x="600.00" y="1517.00" width="150.00" height="65.00" rx="3" ry="3" fill="#EAEAEA" stroke="#666666" stroke-width="1.0"/><text x="675.00" y="1553.50" text-anchor="middle" font-family="arial" font-size="16" fill="#01579b"><tspan x="675.00" dy="0.00">Gemini</tspan></text><rect x="800.00" y="1517.00" width="150.00" height="65.00" rx="3" ry="3" fill="#EAEAEA" stroke="#666666" stroke-width="1.0"/><text x="875.00" y="1553.50" text-anchor="middle" font-family="arial" font-size="16" fill="#01579b"><tspan x="875.00" dy="0.00">RH</tspan></text><rect x="1000.00" y="1517.00" width="150.00" height="65.00" rx="3" ry="3" fill="#EAEAEA" stroke="#666666" stroke-width="1.0"/><text x="1075.00" y="1553.50" text-anchor="middle" font-family="arial" font-size="16" fill="#01579b"><tspan x="1075.00" dy="0.00">Check</tspan></text><rect x="1200.00" y="1517.00" width="150.00" height="65.00" rx="3" ry="3" fill="#EAEAEA" stroke="#666666" stroke-width="1.0"/><text x="1275.00" y="1553.50" text-anchor="middle" font-family="arial" font-size="16" fill="#01579b"><tspan x="1275.00" dy="0.00">Vol</tspan></text><rect x="1400.00" y="1517.00" width="150.00" height="65.00" rx="3" ry="3" fill="#EAEAEA" stroke="#666666" stroke-width="1.0"/><text x="1475.00" y="1553.50" text-anchor="middle" font-family="arial" font-size="16" fill="#01579b"><tspan x="1475.00" dy="0.00">Img</tspan></text><rect x="1600.00" y="1517.00" width="150.00" height="65.00" rx="3" ry="3" fill="#EAEAEA" stroke="#666666" stroke-width="1.0"/><text x="1675.00" y="1553.50" text-anchor="middle" font-family="arial" font-size="16" fill="#01579b"><tspan x="1675.00" dy="0.00">UI</tspan></text><rect x="1800.00" y="1517.00" width="150.00" height="65.00" rx="3" ry="3" fill="#EAEAEA" stroke="#666666" stroke-width="1.0"/><text x="1875.00" y="1553.50" text-anchor="middle" font-family="arial" font-size="16" fill="#01579b"><tspan x="1875.00" dy="0.00">Gen</tspan></text><rect x="2000.00" y="1517.00" width="150.00" height="65.00" rx="3" ry="3" fill="#EAEAEA" stroke="#666666" stroke-width="1.0"/><text x="2075.00" y="1553.50" text-anchor="middle" font-family="arial" font-size="16" fill="#01579b"><tspan x="2075.00" dy="0.00">Gemini</tspan></text><rect x="2200.00" y="1517.00" width="150.00" height="65.00" rx="3" ry="3" fill="#EAEAEA" stroke="#666666" stroke-width="1.0"/><text x="2275.00" y="1553.50" text-anchor="middle" font-family="arial" font-size="16" fill="#01579b"><tspan x="2275.00" dy="0.00">RH</tspan></text><rect x="2400.00" y="1517.00" width="150.00" height="65.00" rx="3" ry="3" fill="#EAEAEA" stroke="#666666" stroke-width="1.0"/><text x="2475.00" y="1553.50" text-anchor="middle" font-family="arial" font-size="16" fill="#01579b"><tspan x="2475.00" dy="0.00">Check</tspan></text><rect x="2600.00" y="1517.00" width="150.00" height="65.00" rx="3" ry="3" fill="#EAEAEA" stroke="#666666" stroke-width="1.0"/><text x="2675.00" y="1553.50" text-anchor="middle" font-family="arial" font-size="16" fill="#01579b"><tspan x="2675.00" dy="0.00">Vol</tspan></text><rect x="2800.00" y="1517.00" width="150.00" height="65.00" rx="3" ry="3" fill="#EAEAEA" stroke="#666666" stroke-width="1.0"/><text x="2875.00" y="1553.50" text-anchor="middle" font-family="arial" font-size="16" fill="#01579b"><tspan x="2875.00" dy="0.00">Img</tspan></text></svg>